<?xml version="1.0" standalone="no"?>
<!DOCTYPE svg PUBLIC "-//W3C//DTD SVG 20010904//EN"
 "http://www.w3.org/TR/2001/REC-SVG-20010904/DTD/svg10.dtd">
<svg version="1.0" xmlns="http://www.w3.org/2000/svg"
 width="512.000000pt" height="512.000000pt" viewBox="0 0 512.000000 512.000000"
 preserveAspectRatio="xMidYMid meet">
<metadata>
Created by potrace 1.14, written by Peter Selinger 2001-2017
</metadata>
<g transform="translate(0.000000,512.000000) scale(0.100000,-0.100000)"
fill="#000000" stroke="none">
<path d="M0 2560 l0 -2560 2560 0 2560 0 0 2560 0 2560 -2560 0 -2560 0 0
-2560z m3570 1688 c24 -13 53 -36 64 -51 20 -28 21 -44 26 -530 l5 -502 502
-5 c485 -5 502 -6 529 -25 65 -49 84 -152 40 -218 -22 -32 -204 -255 -950
-1166 -142 -174 -312 -382 -377 -462 -132 -162 -165 -186 -240 -176 -46 6 -82
28 -113 71 -20 27 -21 42 -26 524 l-5 497 -201 3 -202 2 -68 -71 c-75 -78
-145 -129 -242 -178 l-62 -31 61 -88 c33 -48 84 -121 113 -162 282 -402 386
-551 386 -555 0 -3 -112 -5 -248 -5 l-248 0 -90 127 c-49 70 -97 139 -106 153
-9 14 -81 117 -160 230 l-144 205 -327 3 -327 2 0 -360 0 -360 -232 2 -233 3
0 1235 0 1235 535 3 c576 3 710 -4 862 -42 188 -48 320 -118 440 -234 40 -38
72 -62 77 -56 4 5 180 221 391 479 210 259 392 478 404 487 48 40 107 46 166
16z"/>
<path d="M3045 3293 l-290 -355 5 -46 c3 -26 5 -118 4 -204 l0 -158 236 0
c229 0 238 -1 270 -23 19 -12 43 -38 54 -57 20 -33 21 -55 26 -378 l5 -344
280 343 c154 188 358 437 452 553 l173 211 -403 5 c-450 6 -443 5 -489 77 -23
38 -23 43 -28 384 l-5 347 -290 -355z"/>
<path d="M1160 2716 l0 -486 218 -1 c329 -3 421 0 492 11 90 15 96 20 76 58
-24 47 -21 122 7 163 13 19 87 112 165 206 78 95 147 181 154 192 10 16 7 30
-20 84 -55 111 -161 192 -307 234 -50 14 -118 17 -422 21 l-363 3 0 -485z"/>
</g>
</svg>
